<svg xmlns="http://www.w3.org/2000/svg" width="18" height="18" viewBox="0 0 48 48">
  <path fill="#FFC107" d="M43.6 20.5H42V20H24v8h11.3C33.6 32.1 29.3 35 24 35c-7.2 0-13-5.8-13-13s5.8-13 13-13c3.3 0 6.3 1.2 8.6 3.3l5.7-5.7C34.9 3.1 29.7 1 24 1 11.8 1 2 10.8 2 23s9.8 22 22 22c12.1 0 21-8.7 21-21 0-1.2-.1-2.1-.4-3.5z"/>
  <path fill="#FF3D00" d="M6.3 14.7l6.6 4.8C14.7 16.1 18.9 13 24 13c3.3 0 6.3 1.2 8.6 3.3l5.7-5.7C34.9 3.1 29.7 1 24 1 15.3 1 7.8 5.6 3.7 12.3l6.6 4.8z"/>
  <path fill="#4CAF50" d="M24 45c5.2 0 10-1.8 13.7-4.8l-6.3-5.2C29.2 36.4 26.7 37 24 37c-5.3 0-9.6-2.9-11.8-7.2l-6.6 5.1C7.7 40.3 15.2 45 24 45z"/>
  <path fill="#1976D2" d="M43.6 20.5H42V20H24v8h11.3c-1.6 4.1-5.6 7-11.3 7-5.3 0-9.6-2.9-11.8-7.2l-6.6 5.1C7.7 40.3 15.2 45 24 45c12.1 0 21-8.7 21-21 0-1.2-.1-2.1-.4-3.5z"/>
</svg>


